# xmcd
# Track frame offsets:
# 177
# 14592
# 32287
# 45812
# 65180
# 80185
# 96817
# 112812
# 127722
# 143362
# 160610
# 174795
# 193730
# 213472
# 228022
# 241932
#
# Disc length: 3415 seconds
# Revision: 2
# Processed by: cddbd v1.4PL0 Copyright (c) Steve Scherf et al.
# Submitted via: VisiTrax 2.9.5.181 - For more info visit www.synapsa.com
#
DISCID=ba0d5510
DTITLE=Margriet Hermans - Voluit - De 16 Grootste Hits
DYEAR=1995
DGENRE=Nederlands
TTITLE0=Niets Houdt Me Tegen
TTITLE1=Tussen Aa En Nete
TTITLE2=Laisse Rouler Le Bon Temps,jaqueline
TTITLE3=Mijn Eigen Weg
TTITLE4=Alle Mooie Mannen Zijn Zo Lelijk
TTITLE5=Ik Heb De Blues
TTITLE6=Katleentje
TTITLE7=Nooit Meer Verliefd
TTITLE8=Als De Nacht Komt
TTITLE9=Celien
TTITLE10=Laat De Meisjes Bij Hun Poppen
TTITLE11=Als J'es Wist
TTITLE12=Onderwijsblues
TTITLE13=Een Vriend '92
TTITLE14=Je Vaders Huis
TTITLE15=Heksen En Duivels
EXTD=
EXTT0=
EXTT1=
EXTT2=
EXTT3=
EXTT4=
EXTT5=
EXTT6=
EXTT7=
EXTT8=
EXTT9=
EXTT10=
EXTT11=
EXTT12=
EXTT13=
EXTT14=
EXTT15=
PLAYORDER=
